<svg width="420" height="506" viewBox="0 0 420 506" fill="none" xmlns="http://www.w3.org/2000/svg">
<g filter="url(#filter0_d_5_29)">
<path d="M371.483 93.1319L213.917 40.6148C212.489 40.1481 210.989 39.9442 209.488 40.0131V105.669C211 105.605 212.51 105.819 213.945 106.299L319.948 141.63C322.426 142.458 324.581 144.044 326.109 146.164C327.636 148.284 328.458 150.831 328.459 153.443V193.22H379.998V104.95C379.999 102.335 379.178 99.7869 377.649 97.6658C376.121 95.5446 373.964 93.9583 371.483 93.1319Z" fill="#833AF8"/>
<path d="M328.459 212.162H208.584V262.428L322.12 262.394C322.967 262.394 323.806 262.561 324.588 262.887C325.371 263.212 326.081 263.689 326.678 264.291C327.275 264.892 327.747 265.605 328.068 266.389C328.388 267.173 328.55 268.013 328.544 268.861L328.459 281.922C328.459 310.419 308.894 339.026 270.306 366.957C243.082 386.657 216.225 398.772 215.097 399.278C213.495 399.995 211.759 400.366 210.004 400.365C209.831 400.365 209.66 400.365 209.486 400.35V465.904C209.649 465.904 209.812 465.929 209.974 465.929C211.73 465.927 213.466 465.554 215.067 464.833C221.802 461.82 380 389.916 380 295.914V212.054H328.459V212.162Z" fill="#833AF8"/>
<path d="M206.083 40.6897L48.5188 93.209C46.0379 94.0353 43.8801 95.6214 42.3511 97.7425C40.8221 99.8636 39.9995 102.412 40 105.027V262.33H89.6419V262.42H209.535V212.162L98.1093 212.127C96.408 212.127 94.7762 211.453 93.5718 210.251C92.3674 209.05 91.6888 207.42 91.6848 205.718L91.5692 153.471C91.5694 150.857 92.3922 148.308 93.9211 146.187C95.45 144.066 97.6075 142.48 100.088 141.653L206.092 106.322C207.206 105.95 208.368 105.738 209.542 105.693V40.088C211.042 40.0192 212.543 40.223 213.97 40.6897C211.411 39.836 208.643 39.836 206.083 40.6897Z" fill="#9C62F9"/>
<path d="M91.5692 281.167H40V295.995C40 389.997 198.198 461.902 204.933 464.914C206.508 465.621 208.214 465.99 209.94 466C209.807 466 209.672 465.983 209.535 465.976V400.415L204.933 399.286C203.803 398.781 176.948 386.676 149.721 366.976C111.136 339.048 91.5714 310.446 91.5714 281.942" fill="#9C62F9"/>
</g>
<defs>
<filter id="filter0_d_5_29" x="0" y="0" width="420" height="506" filterUnits="userSpaceOnUse" color-interpolation-filters="sRGB">
<feFlood flood-opacity="0" result="BackgroundImageFix"/>
<feColorMatrix in="SourceAlpha" type="matrix" values="0 0 0 0 0 0 0 0 0 0 0 0 0 0 0 0 0 0 127 0" result="hardAlpha"/>
<feOffset/>
<feGaussianBlur stdDeviation="20"/>
<feComposite in2="hardAlpha" operator="out"/>
<feColorMatrix type="matrix" values="0 0 0 0 0 0 0 0 0 0 0 0 0 0 0 0 0 0 0.5 0"/>
<feBlend mode="normal" in2="BackgroundImageFix" result="effect1_dropShadow_5_29"/>
<feBlend mode="normal" in="SourceGraphic" in2="effect1_dropShadow_5_29" result="shape"/>
</filter>
</defs>
</svg>
