<svg id="Layer_1" data-name="Layer 1" xmlns="http://www.w3.org/2000/svg" viewBox="0 0 1587.68 1989.45"><defs><style>.cls-1{fill:#1c75bc;}.cls-2{fill:#16ab93;}.cls-3{fill:#27aae1;}</style></defs><path class="cls-1" d="M1754.07,253.4,1018.29,8.13a58,58,0,0,0-20.68-2.8V311.94a58.15,58.15,0,0,1,20.81,2.94l495,165a58.17,58.17,0,0,1,39.79,55.19V720.81h240.67V308.59A58.13,58.13,0,0,0,1754.07,253.4Z" transform="translate(-206.16 -5.28)"/><path class="cls-1" d="M1553.17,809.24H993.39V1044l530.17-.16a30,30,0,0,1,30,30.2l-.4,61c0,133.07-91.36,266.68-271.55,397.11-127.13,92-252.54,148.59-257.81,150.94a58.14,58.14,0,0,1-23.78,5.08c-.81,0-1.62,0-2.42-.06v306.19c.76,0,1.52.12,2.28.12a58.09,58.09,0,0,0,23.77-5.08c31.45-14.08,770.18-349.87,770.18-788.87V808.78H1553.17Z" transform="translate(-206.16 -5.28)"/><path class="cls-2" d="M1758.65,255.4q2.14.9,4.17,2Q1760.8,256.31,1758.65,255.4Z" transform="translate(-206.16 -5.28)"/><path class="cls-3" d="M981.71,8.49,245.94,253.75a58.18,58.18,0,0,0-39.78,55.19v734.63H438v.42H997.83V809.24l-520.32-.16a30,30,0,0,1-30-29.94l-.54-244A58.17,58.17,0,0,1,486.76,480l495-165A58.6,58.6,0,0,1,997.83,312V5.68a58,58,0,0,1,20.68,2.81A58.06,58.06,0,0,0,981.71,8.49Z" transform="translate(-206.16 -5.28)"/><path class="cls-3" d="M447,1131.53H206.16v69.26c0,439,738.73,774.8,770.18,788.87a58.07,58.07,0,0,0,23.38,5.06c-.63,0-1.25-.08-1.89-.1V1688.43l-21.49-5.26c-5.28-2.37-130.68-58.92-257.82-150.94C538.34,1401.79,447,1268.19,447,1135.11" transform="translate(-206.16 -5.28)"/></svg>